NFP 09-22-14_cut.ufo
<glyph name="hyphen" format="1">
  <advance width="434"/>
  <unicode hex="002D"/>
  <outline>
    <contour>
      <point x="40" y="315" type="line"/>
      <point x="394" y="315" type="line"/>
      <point x="394" y="233" type="line"/>
      <point x="40" y="233" type="line"/>
    </contour>
  </outline>
</glyph>
<glyph name="H" format="1">
  <advance width="774"/>
  <unicode hex="0048"/>
  <outline>
    <contour>
      <point x="654" y="332" type="line"/>
      <point x="120" y="332" type="line"/>
      <point x="120" y="398" type="line"/>
      <point x="654" y="398" type="line"/>
    </contour>
    <contour>
      <point x="555" y="0" type="line"/>
      <point x="555" y="690" type="line"/>
      <point x="657" y="690" type="line"/>
      <point x="657" y="0" type="line"/>
    </contour>
    <contour>
      <point x="749" y="0" type="line"/>
      <point x="657" y="0" type="line"/>
      <point x="657" y="65" type="line"/>
      <point x="749" y="31" type="line"/>
    </contour>
    <contour>
      <point x="463" y="0" type="line"/>
      <point x="463" y="31" type="line"/>
      <point x="555" y="65" type="line"/>
      <point x="555" y="0" type="line"/>
    </contour>
    <contour>
      <point x="463" y="690" type="line"/>
      <point x="555" y="690" type="line"/>
      <point x="555" y="625" type="line"/>
      <point x="463" y="659" type="line"/>
    </contour>
    <contour>
      <point x="749" y="690" type="line"/>
      <point x="749" y="659" type="line"/>
      <point x="657" y="625" type="line"/>
      <point x="657" y="690" type="line"/>
    </contour>
    <contour>
      <point x="311" y="690" type="line"/>
      <point x="311" y="659" type="line"/>
      <point x="219" y="625" type="line"/>
      <point x="219" y="690" type="line"/>
    </contour>
    <contour>
      <point x="117" y="0" type="line"/>
      <point x="117" y="690" type="line"/>
      <point x="219" y="690" type="line"/>
      <point x="219" y="0" type="line"/>
    </contour>
    <contour>
      <point x="25" y="0" type="line"/>
      <point x="25" y="31" type="line"/>
      <point x="117" y="65" type="line"/>
      <point x="117" y="0" type="line"/>
    </contour>
    <contour>
      <point x="311" y="0" type="line"/>
      <point x="219" y="0" type="line"/>
      <point x="219" y="65" type="line"/>
      <point x="311" y="31" type="line"/>
    </contour>
    <contour>
      <point x="25" y="690" type="line"/>
      <point x="117" y="690" type="line"/>
      <point x="117" y="625" type="line"/>
      <point x="25" y="659" type="line"/>
    </contour>
  </outline>
</glyph>
<glyph name="I" format="1">
  <advance width="336"/>
  <unicode hex="0049"/>
  <outline>
    <contour>
      <point x="311" y="690" type="line"/>
      <point x="311" y="659" type="line"/>
      <point x="219" y="625" type="line"/>
      <point x="219" y="690" type="line"/>
    </contour>
    <contour>
      <point x="117" y="0" type="line"/>
      <point x="117" y="690" type="line"/>
      <point x="219" y="690" type="line"/>
      <point x="219" y="0" type="line"/>
    </contour>
    <contour>
      <point x="25" y="0" type="line"/>
      <point x="25" y="31" type="line"/>
      <point x="117" y="65" type="line"/>
      <point x="117" y="0" type="line"/>
    </contour>
    <contour>
      <point x="311" y="0" type="line"/>
      <point x="219" y="0" type="line"/>
      <point x="219" y="65" type="line"/>
      <point x="311" y="31" type="line"/>
    </contour>
    <contour>
      <point x="25" y="690" type="line"/>
      <point x="117" y="690" type="line"/>
      <point x="117" y="625" type="line"/>
      <point x="25" y="659" type="line"/>
    </contour>
  </outline>
</glyph>
<glyph name="K" format="1">
  <advance width="623"/>
  <unicode hex="004B"/>
  <outline>
    <contour>
      <point x="544" y="685" type="line"/>
      <point x="665" y="685" type="line"/>
      <point x="191" y="194" type="line"/>
      <point x="118" y="248" type="line"/>
    </contour>
    <contour>
      <point x="562" y="0" type="line"/>
      <point x="341" y="369" type="line"/>
      <point x="417" y="430" type="line"/>
      <point x="669" y="0" type="line"/>
    </contour>
    <component base="I"/>
  </outline>
</glyph>
<glyph name="a" format="1">
  <advance width="516"/>
  <unicode hex="0061"/>
  <outline>
    <contour>
      <point x="29" y="388" type="line"/>
      <point x="87" y="478"/>
      <point x="164.406113537" y="505.0"/>
      <point x="257" y="505" type="curve" smooth="yes"/>
      <point x="367" y="505"/>
      <point x="470" y="460"/>
      <point x="464" y="320" type="curve" smooth="yes"/>
      <point x="459" y="138" type="line" smooth="yes"/>
      <point x="458" y="104"/>
      <point x="452" y="75"/>
      <point x="518" y="86" type="curve"/>
      <point x="505" y="-5" type="line"/>
      <point x="399" y="-20"/>
      <point x="350" y="10"/>
      <point x="355" y="142" type="curve" smooth="yes"/>
      <point x="362" y="324" type="line" smooth="yes"/>
      <point x="364" y="396"/>
      <point x="310" y="418"/>
      <point x="251" y="418" type="curve"/>
      <point x="193" y="418"/>
      <point x="146" y="398"/>
      <point x="111" y="347" type="curve"/>
    </contour>
    <contour>
      <point x="405" y="225" type="line"/>
      <point x="316" y="233"/>
      <point x="122" y="233"/>
      <point x="122" y="139" type="curve"/>
      <point x="122" y="101"/>
      <point x="149" y="71"/>
      <point x="205" y="71" type="curve"/>
      <point x="273" y="71"/>
      <point x="351" y="137"/>
      <point x="378" y="204" type="curve"/>
      <point x="427" y="188" type="line"/>
      <point x="388" y="89"/>
      <point x="334" y="-13"/>
      <point x="197" y="-13" type="curve"/>
      <point x="107" y="-13"/>
      <point x="25" y="27"/>
      <point x="25" y="137" type="curve"/>
      <point x="25" y="272"/>
      <point x="228" y="323"/>
      <point x="413" y="305" type="curve"/>
    </contour>
    <contour>
      <point x="257" y="510" type="move" name="top"/>
    </contour>
  </outline>
</glyph>
<glyph name="b" format="1">
  <advance width="559"/>
  <unicode hex="0062"/>
  <outline>
    <contour>
      <point x="92" y="615" type="line"/>
      <point x="0" y="649" type="line"/>
      <point x="0" y="680" type="line"/>
      <point x="194" y="690" type="line"/>
      <point x="194" y="27" type="line"/>
      <point x="92" y="-10" type="line"/>
    </contour>
    <contour>
      <point x="167" y="66" type="curve"/>
      <point x="180" y="111" type="line"/>
      <point x="215" y="59"/>
      <point x="249" y="51"/>
      <point x="298" y="51" type="curve"/>
      <point x="376" y="51"/>
      <point x="434" y="135"/>
      <point x="434" y="246" type="curve"/>
      <point x="434" y="361"/>
      <point x="373" y="431"/>
      <point x="296" y="431" type="curve"/>
      <point x="265" y="431"/>
      <point x="216" y="419"/>
      <point x="165" y="346" type="curve"/>
      <point x="141" y="393" type="line"/>
      <point x="179" y="469"/>
      <point x="260" y="510"/>
      <point x="338" y="510" type="curve"/>
      <point x="456" y="510"/>
      <point x="534" y="421"/>
      <point x="534" y="265" type="curve" smooth="yes"/>
      <point x="534" y="116"/>
      <point x="435" y="-9"/>
      <point x="291" y="-10" type="curve"/>
      <point x="244" y="-10"/>
      <point x="190" y="5"/>
    </contour>
  </outline>
</glyph>
<glyph name="c" format="1">
  <advance width="487"/>
  <unicode hex="0063"/>
  <outline>
    <contour>
      <point x="450" y="458" type="line"/>
      <point x="407" y="489"/>
      <point x="349" y="510"/>
      <point x="289" y="510" type="curve"/>
      <point x="132" y="509"/>
      <point x="24" y="384"/>
      <point x="24" y="235" type="curve" smooth="yes"/>
      <point x="24" y="79"/>
      <point x="118" y="-10"/>
      <point x="260" y="-10" type="curve"/>
      <point x="328" y="-10"/>
      <point x="398" y="17"/>
      <point x="467" y="77" type="curve"/>
      <point x="443" y="118" type="line"/>
      <point x="389" y="75"/>
      <point x="350" y="63"/>
      <point x="302" y="63" type="curve"/>
      <point x="202" y="63"/>
      <point x="123" y="135"/>
      <point x="123" y="254" type="curve"/>
      <point x="123" y="366"/>
      <point x="192" y="451"/>
      <point x="282" y="451" type="curve"/>
      <point x="342" y="451"/>
      <point x="376" y="430"/>
      <point x="430" y="394" type="curve"/>
    </contour>
    <contour>
      <point x="450" y="320" type="line"/>
      <point x="450" y="458" type="line"/>
      <point x="329" y="472" type="line"/>
      <point x="406" y="320" type="line"/>
    </contour>
  </outline>
</glyph>
<glyph name="d" format="1">
  <advance width="569"/>
  <unicode hex="0064"/>
  <outline>
    <contour>
      <point x="273" y="690" type="line"/>
      <point x="365" y="690" type="line"/>
      <point x="365" y="625" type="line"/>
      <point x="273" y="659" type="line"/>
    </contour>
    <contour>
      <point x="467" y="65" type="line"/>
      <point x="559" y="31" type="line"/>
      <point x="559" y="0" type="line"/>
      <point x="365" y="-10" type="line"/>
      <point x="365" y="690" type="line"/>
      <point x="467" y="690" type="line"/>
    </contour>
    <component base="boucle" xOffset="-33"/>
  </outline>
</glyph>
<glyph name="e" format="1">
  <advance width="481"/>
  <unicode hex="0065"/>
  <outline>
    <contour>
      <point x="448" y="252" type="line"/>
      <point x="431" y="301" type="line"/>
      <point x="123" y="286" type="line"/>
      <point x="25" y="232" type="line"/>
    </contour>
    <contour>
      <point x="351" y="251" type="curve"/>
      <point x="448" y="252" type="line"/>
      <point x="448" y="429"/>
      <point x="384" y="509"/>
      <point x="265" y="510" type="curve"/>
      <point x="122" y="509"/>
      <point x="24" y="384"/>
      <point x="24" y="235" type="curve" smooth="yes"/>
      <point x="24" y="79"/>
      <point x="114" y="-13"/>
      <point x="250" y="-10" type="curve"/>
      <point x="364" y="-13"/>
      <point x="426" y="46"/>
      <point x="457" y="77" type="curve"/>
      <point x="431" y="109" type="line"/>
      <point x="406" y="85"/>
      <point x="365" y="58"/>
      <point x="292" y="58" type="curve"/>
      <point x="197" y="58"/>
      <point x="123" y="132"/>
      <point x="123" y="254" type="curve"/>
      <point x="123" y="366"/>
      <point x="171" y="445"/>
      <point x="242" y="445" type="curve"/>
      <point x="309" y="445"/>
      <point x="351" y="373"/>
    </contour>
  </outline>
</glyph>
<glyph name="f" format="1">
  <advance width="354"/>
  <unicode hex="0066"/>
  <outline>
    <contour>
      <point x="15" y="0" type="line"/>
      <point x="15" y="31" type="line"/>
      <point x="107" y="65" type="line"/>
      <point x="107" y="0" type="line"/>
    </contour>
    <contour>
      <point x="301" y="0" type="line"/>
      <point x="209" y="0" type="line"/>
      <point x="209" y="65" type="line"/>
      <point x="301" y="31" type="line"/>
    </contour>
    <contour>
      <point x="156" y="458" type="line"/>
      <point x="327" y="458" type="line"/>
      <point x="327" y="500" type="line"/>
      <point x="166" y="500" type="line"/>
    </contour>
    <contour>
      <point x="209" y="0" type="line"/>
      <point x="209" y="553" type="line"/>
      <point x="209" y="596"/>
      <point x="229" y="659"/>
      <point x="377" y="624" type="curve"/>
      <point x="377" y="624"/>
      <point x="377" y="664"/>
      <point x="377" y="664" type="curve"/>
      <point x="155" y="732"/>
      <point x="107" y="614.661764706"/>
      <point x="107" y="542" type="curve" smooth="yes"/>
      <point x="107" y="505" type="line"/>
      <point x="15" y="500" type="line"/>
      <point x="15" y="469" type="line"/>
      <point x="107" y="455" type="line"/>
      <point x="107" y="0" type="line"/>
    </contour>
  </outline>
</glyph>
<glyph name="h" format="1">
  <advance width="649"/>
  <unicode hex="0068"/>
  <outline>
    <contour>
      <point x="353" y="0" type="line"/>
      <point x="353" y="31" type="line"/>
      <point x="445" y="65" type="line"/>
      <point x="445" y="0" type="line"/>
    </contour>
    <contour>
      <point x="639" y="0" type="line"/>
      <point x="547" y="0" type="line"/>
      <point x="547" y="65" type="line"/>
      <point x="639" y="31" type="line"/>
    </contour>
    <contour>
      <point x="306" y="0" type="line"/>
      <point x="214" y="0" type="line"/>
      <point x="214" y="65" type="line"/>
      <point x="306" y="31" type="line"/>
    </contour>
    <contour>
      <point x="20" y="0" type="line"/>
      <point x="20" y="31" type="line"/>
      <point x="112" y="65" type="line"/>
      <point x="112" y="0" type="line"/>
    </contour>
    <contour>
      <point x="547" y="0" type="line"/>
      <point x="445" y="0" type="line"/>
      <point x="445" y="307" type="line" smooth="yes"/>
      <point x="445" y="397"/>
      <point x="416" y="434"/>
      <point x="344" y="434" type="curve"/>
      <point x="293" y="434"/>
      <point x="233" y="411"/>
      <point x="199" y="384" type="curve"/>
      <point x="190" y="423" type="line"/>
      <point x="228" y="468"/>
      <point x="312" y="510"/>
      <point x="391" y="510" type="curve"/>
      <point x="503" y="510"/>
      <point x="547" y="445"/>
      <point x="547" y="317" type="curve" smooth="yes"/>
    </contour>
    <contour>
      <point x="214" y="700" type="line"/>
      <point x="214" y="0" type="line"/>
      <point x="112" y="0" type="line"/>
      <point x="112" y="625" type="line"/>
      <point x="20" y="659" type="line"/>
      <point x="20" y="690" type="line"/>
    </contour>
  </outline>
</glyph>
<glyph name="l" format="1">
  <advance width="336"/>
  <unicode hex="006C"/>
  <outline>
    <contour>
      <point x="25" y="690" type="line"/>
      <point x="117" y="690" type="line"/>
      <point x="117" y="625" type="line"/>
      <point x="25" y="659" type="line"/>
    </contour>
    <contour>
      <point x="311" y="0" type="line"/>
      <point x="219" y="0" type="line"/>
      <point x="219" y="65" type="line"/>
      <point x="311" y="31" type="line"/>
    </contour>
    <contour>
      <point x="25" y="0" type="line"/>
      <point x="25" y="31" type="line"/>
      <point x="117" y="65" type="line"/>
      <point x="117" y="0" type="line"/>
    </contour>
    <contour>
      <point x="117" y="0" type="line"/>
      <point x="117" y="690" type="line"/>
      <point x="219" y="690" type="line"/>
      <point x="219" y="0" type="line"/>
    </contour>
  </outline>
</glyph>
<glyph name="p" format="1">
  <advance width="598"/>
  <unicode hex="0070"/>
  <outline>
    <contour>
      <point x="325" y="-185" type="line"/>
      <point x="233" y="-185" type="line"/>
      <point x="233" y="-120" type="line"/>
      <point x="325" y="-154" type="line"/>
    </contour>
    <contour>
      <point x="39" y="-185" type="line"/>
      <point x="39" y="-154" type="line"/>
      <point x="131" y="-120" type="line"/>
      <point x="131" y="-185" type="line"/>
    </contour>
    <contour>
      <point x="131" y="435" type="line"/>
      <point x="39" y="469" type="line"/>
      <point x="39" y="500" type="line"/>
      <point x="233" y="510" type="line"/>
      <point x="233" y="-185" type="line"/>
      <point x="131" y="-185" type="line"/>
    </contour>
    <contour>
      <point x="206" y="66" type="curve"/>
      <point x="219" y="111" type="line"/>
      <point x="254" y="59"/>
      <point x="288" y="51"/>
      <point x="337" y="51" type="curve"/>
      <point x="415" y="51"/>
      <point x="473" y="135"/>
      <point x="473" y="246" type="curve"/>
      <point x="473" y="361"/>
      <point x="412" y="431"/>
      <point x="335" y="431" type="curve"/>
      <point x="304" y="431"/>
      <point x="255" y="419"/>
      <point x="204" y="346" type="curve"/>
      <point x="180" y="393" type="line"/>
      <point x="218" y="469"/>
      <point x="299" y="510"/>
      <point x="377" y="510" type="curve"/>
      <point x="495" y="510"/>
      <point x="573" y="421"/>
      <point x="573" y="265" type="curve" smooth="yes"/>
      <point x="573" y="116"/>
      <point x="474" y="-9"/>
      <point x="330" y="-10" type="curve"/>
      <point x="283" y="-10"/>
      <point x="229" y="5"/>
    </contour>
  </outline>
</glyph>
<glyph name="q" format="1">
  <advance width="569"/>
  <unicode hex="0071"/>
  <outline>
    <contour>
      <point x="392" y="434" type="curve"/>
      <point x="379" y="389" type="line"/>
      <point x="344" y="441"/>
      <point x="310" y="449"/>
      <point x="261" y="449" type="curve"/>
      <point x="183" y="449"/>
      <point x="125" y="365"/>
      <point x="125" y="254" type="curve"/>
      <point x="125" y="139"/>
      <point x="186" y="69"/>
      <point x="263" y="69" type="curve"/>
      <point x="294" y="69"/>
      <point x="343" y="81"/>
      <point x="394" y="154" type="curve"/>
      <point x="418" y="107" type="line"/>
      <point x="380" y="31"/>
      <point x="299" y="-10"/>
      <point x="221" y="-10" type="curve"/>
      <point x="103" y="-10"/>
      <point x="25" y="79"/>
      <point x="25" y="235" type="curve" smooth="yes"/>
      <point x="25" y="384"/>
      <point x="124" y="509"/>
      <point x="268" y="510" type="curve"/>
      <point x="315" y="510"/>
      <point x="369" y="495"/>
    </contour>
    <contour>
      <point x="272" y="-185" type="line"/>
      <point x="272" y="-154" type="line"/>
      <point x="364" y="-120" type="line"/>
      <point x="364" y="470" type="line"/>
      <point x="466" y="500" type="line"/>
      <point x="466" y="-120" type="line"/>
      <point x="558" y="-154" type="line"/>
      <point x="558" y="-185" type="line"/>
    </contour>
  </outline>
</glyph>
<glyph name="r" format="1">
  <advance width="470"/>
  <unicode hex="0072"/>
  <outline>
    <contour>
      <point x="442" y="383" type="line"/>
      <point x="408" y="405"/>
      <point x="381" y="417"/>
      <point x="332" y="417" type="curve"/>
      <point x="277" y="417"/>
      <point x="238" y="401"/>
      <point x="206" y="363" type="curve"/>
      <point x="188" y="361" type="line"/>
      <point x="221" y="457"/>
      <point x="277" y="508"/>
      <point x="357" y="510" type="curve"/>
      <point x="399" y="508"/>
      <point x="443" y="490"/>
      <point x="470" y="460" type="curve"/>
    </contour>
    <contour>
      <point x="25" y="0" type="line"/>
      <point x="25" y="31" type="line"/>
      <point x="117" y="65" type="line"/>
      <point x="117" y="0" type="line"/>
    </contour>
    <contour>
      <point x="311" y="0" type="line"/>
      <point x="219" y="0" type="line"/>
      <point x="219" y="65" type="line"/>
      <point x="311" y="31" type="line"/>
    </contour>
    <contour>
      <point x="219" y="510" type="line"/>
      <point x="219" y="0" type="line"/>
      <point x="117" y="0" type="line"/>
      <point x="117" y="435" type="line"/>
      <point x="25" y="469" type="line"/>
      <point x="25" y="500" type="line"/>
    </contour>
  </outline>
</glyph>
<glyph name="t" format="1">
  <advance width="375"/>
  <unicode hex="0074"/>
  <outline>
    <contour>
      <point x="112" y="505" type="move"/>
      <point x="20" y="500" type="line"/>
      <point x="20" y="469" type="line"/>
      <point x="112" y="455" type="line"/>
    </contour>
    <contour>
      <point x="161" y="458" type="line"/>
      <point x="332" y="458" type="line"/>
      <point x="332" y="500" type="line"/>
      <point x="171" y="500" type="line"/>
    </contour>
    <contour>
      <point x="96" y="659" type="line"/>
      <point x="96" y="173" type="line" smooth="yes"/>
      <point x="96" y="37"/>
      <point x="135" y="-10"/>
      <point x="256" y="-10" type="curve"/>
      <point x="296" y="-10"/>
      <point x="330" y="-1"/>
      <point x="360" y="14" type="curve"/>
      <point x="345" y="48" type="line"/>
      <point x="330" y="43"/>
      <point x="316" y="41"/>
      <point x="304" y="41" type="curve"/>
      <point x="231" y="41"/>
      <point x="205" y="71"/>
      <point x="205" y="169" type="curve" smooth="yes"/>
      <point x="205" y="699" type="line"/>
    </contour>
  </outline>
</glyph>
<glyph name="u" format="1">
  <advance width="634"/>
  <unicode hex="0075"/>
  <outline>
    <contour>
      <point x="333" y="500" type="curve"/>
      <point x="333" y="469" type="line"/>
      <point x="425" y="435" type="line"/>
      <point x="425" y="-10" type="line"/>
      <point x="619" y="0" type="line"/>
      <point x="619" y="31" type="line"/>
      <point x="527" y="65" type="line"/>
      <point x="527" y="510" type="line"/>
      <point x="527" y="510"/>
      <point x="333" y="500"/>
    </contour>
    <contour>
      <point x="194" y="510" type="line"/>
      <point x="0" y="500" type="line"/>
      <point x="0" y="469" type="line"/>
      <point x="92" y="435" type="line"/>
      <point x="92" y="183" type="line" smooth="yes"/>
      <point x="92" y="55"/>
      <point x="136" y="-10"/>
      <point x="248" y="-10" type="curve"/>
      <point x="327" y="-10"/>
      <point x="411" y="32"/>
      <point x="449" y="77" type="curve"/>
      <point x="440" y="116" type="line"/>
      <point x="406" y="89"/>
      <point x="346" y="66"/>
      <point x="295" y="66" type="curve"/>
      <point x="223" y="66"/>
      <point x="194" y="103"/>
      <point x="194" y="193" type="curve" smooth="yes"/>
    </contour>
  </outline>
</glyph>
<glyph name="z" format="1">
  <advance width="484"/>
  <unicode hex="007A"/>
  <outline>
    <contour>
      <point x="45" y="338" type="line"/>
      <point x="45" y="448" type="line"/>
      <point x="126" y="448" type="line"/>
      <point x="79" y="338" type="line"/>
    </contour>
    <contour>
      <point x="479" y="162" type="line"/>
      <point x="479" y="42" type="line"/>
      <point x="387" y="42" type="line"/>
      <point x="445" y="162" type="line"/>
    </contour>
    <contour>
      <point x="10" y="49" type="line"/>
      <point x="334" y="448" type="line"/>
      <point x="45" y="448" type="line"/>
      <point x="45" y="500" type="line"/>
      <point x="45" y="500"/>
      <point x="353" y="500"/>
      <point x="464" y="500" type="curve"/>
      <point x="464" y="454" type="line"/>
      <point x="364" y="338"/>
      <point x="127" y="42"/>
      <point x="127" y="42" type="curve"/>
      <point x="479" y="42" type="line"/>
      <point x="479" y="0" type="line"/>
      <point x="10" y="0" type="line"/>
    </contour>
  </outline>
</glyph>
<glyph name="multiply" format="1">
  <advance width="565"/>
  <unicode hex="00D7"/>
  <outline>
    <contour>
      <point x="128" y="370" type="line"/>
      <point x="186" y="428" type="line"/>
      <point x="436" y="178" type="line"/>
      <point x="378" y="120" type="line"/>
    </contour>
    <contour>
      <point x="128" y="178" type="line"/>
      <point x="378" y="428" type="line"/>
      <point x="436" y="370" type="line"/>
      <point x="186" y="120" type="line"/>
    </contour>
  </outline>
</glyph>
<glyph name="afii10044" format="1">
  <advance width="644"/>
  <unicode hex="042A"/>
  <outline>
    <contour>
      <point x="-19" y="685" type="line"/>
      <point x="265" y="685" type="line"/>
      <point x="265" y="603" type="line"/>
      <point x="-19" y="603" type="line"/>
    </contour>
    <component base="b" xOffset="108"/>
  </outline>
</glyph>
<glyph name="v_a" format="1">
  <advance width="796"/>
  <unicode hex="0905"/>
  <outline>
    <contour>
      <point x="258" y="336" type="curve"/>
      <point x="236" y="409" type="line"/>
      <point x="390" y="409"/>
      <point x="503" y="313"/>
      <point x="503" y="209" type="curve"/>
      <point x="503" y="62"/>
      <point x="403" y="-6"/>
      <point x="267" y="-6" type="curve" smooth="yes"/>
      <point x="86" y="-6"/>
      <point x="14" y="133"/>
      <point x="-17" y="254" type="curve"/>
      <point x="64" y="290" type="line"/>
      <point x="92" y="171"/>
      <point x="152" y="76"/>
      <point x="275" y="76" type="curve" smooth="yes"/>
      <point x="360" y="76"/>
      <point x="412" y="130"/>
      <point x="412" y="205" type="curve"/>
      <point x="412" y="275"/>
      <point x="361" y="356"/>
    </contour>
    <contour>
      <point x="236" y="409" type="line"/>
      <point x="327" y="428"/>
      <point x="380" y="445"/>
      <point x="380" y="519" type="curve" smooth="yes"/>
      <point x="380" y="562"/>
      <point x="348" y="603"/>
      <point x="293" y="603" type="curve" smooth="yes"/>
      <point x="245" y="603"/>
      <point x="207" y="579"/>
      <point x="198" y="533" type="curve"/>
      <point x="122" y="566" type="line"/>
      <point x="135" y="647"/>
      <point x="216" y="684"/>
      <point x="286" y="685" type="curve" smooth="yes"/>
      <point x="389" y="687"/>
      <point x="460" y="617"/>
      <point x="468" y="527" type="curve"/>
      <point x="468" y="409"/>
      <point x="385" y="349"/>
      <point x="272" y="348" type="curve"/>
    </contour>
    <contour>
      <point x="278" y="364" type="curve"/>
      <point x="297" y="422" type="line"/>
      <point x="297" y="422"/>
      <point x="501" y="357"/>
      <point x="653" y="442" type="curve"/>
      <point x="694" y="365" type="line"/>
      <point x="512" y="266"/>
      <point x="278" y="363"/>
    </contour>
    <component base="kana" xOffset="512"/>
  </outline>
</glyph>
<glyph name="boucle" format="1">
  <advance width="463"/>
  <outline>
    <contour>
      <point x="425" y="434" type="curve"/>
      <point x="412" y="389" type="line"/>
      <point x="377" y="441"/>
      <point x="343" y="449"/>
      <point x="294" y="449" type="curve"/>
      <point x="216" y="449"/>
      <point x="158" y="365"/>
      <point x="158" y="254" type="curve"/>
      <point x="158" y="139"/>
      <point x="219" y="69"/>
      <point x="296" y="69" type="curve"/>
      <point x="327" y="69"/>
      <point x="376" y="81"/>
      <point x="427" y="154" type="curve"/>
      <point x="451" y="107" type="line"/>
      <point x="413" y="31"/>
      <point x="332" y="-10"/>
      <point x="254" y="-10" type="curve"/>
      <point x="136" y="-10"/>
      <point x="58" y="79"/>
      <point x="58" y="235" type="curve" smooth="yes"/>
      <point x="58" y="384"/>
      <point x="157" y="509"/>
      <point x="301" y="510" type="curve"/>
      <point x="348" y="510"/>
      <point x="402" y="495"/>
    </contour>
  </outline>
</glyph>
